<mxfile host="app.diagrams.net" modified="2020-12-14T08:44:58.590Z" agent="5.0 (Windows NT 6.1; WOW64) AppleWebKit/537.36 (KHTML, like Gecko) Chrome/79.0.3945.130 Safari/537.36" etag="oP_oFxJNbCJ9TdS3UClc" version="13.11.0" type="github">
  <diagram id="iiPcHqyzsuY4AHNTq1Xq" name="Page-1">
    <mxGraphModel dx="782" dy="706" grid="1" gridSize="10" guides="1" tooltips="1" connect="1" arrows="1" fold="1" page="1" pageScale="1" pageWidth="827" pageHeight="1169" math="0" shadow="0">
      <root>
        <mxCell id="0" />
        <mxCell id="1" parent="0" />
        <mxCell id="rfTbKDHsITXjUfhESdeL-1" value="" style="rounded=0;whiteSpace=wrap;html=1;fillColor=none;dashed=1;strokeWidth=3;" parent="1" vertex="1">
          <mxGeometry x="80" y="200" width="600" height="570" as="geometry" />
        </mxCell>
        <mxCell id="rfTbKDHsITXjUfhESdeL-6" style="edgeStyle=orthogonalEdgeStyle;rounded=0;orthogonalLoop=1;jettySize=auto;html=1;exitX=0.5;exitY=1;exitDx=0;exitDy=0;fontSize=16;strokeWidth=2;" parent="1" source="rfTbKDHsITXjUfhESdeL-2" target="rfTbKDHsITXjUfhESdeL-5" edge="1">
          <mxGeometry relative="1" as="geometry" />
        </mxCell>
        <mxCell id="rfTbKDHsITXjUfhESdeL-2" value="接入方" style="rounded=0;whiteSpace=wrap;html=1;strokeWidth=2;gradientColor=none;fontSize=16;" parent="1" vertex="1">
          <mxGeometry x="305" y="120" width="150" height="50" as="geometry" />
        </mxCell>
        <mxCell id="U6g6P6BVi3KQueRZhiH1-3" style="edgeStyle=orthogonalEdgeStyle;rounded=0;orthogonalLoop=1;jettySize=auto;html=1;exitX=0.5;exitY=1;exitDx=0;exitDy=0;entryX=0.25;entryY=0;entryDx=0;entryDy=0;strokeWidth=2;" edge="1" parent="1" source="rfTbKDHsITXjUfhESdeL-5" target="rfTbKDHsITXjUfhESdeL-7">
          <mxGeometry relative="1" as="geometry" />
        </mxCell>
        <mxCell id="U6g6P6BVi3KQueRZhiH1-10" style="edgeStyle=orthogonalEdgeStyle;rounded=0;orthogonalLoop=1;jettySize=auto;html=1;strokeWidth=2;exitX=0.5;exitY=1;exitDx=0;exitDy=0;endArrow=classic;endFill=1;entryX=1;entryY=0.5;entryDx=0;entryDy=0;" edge="1" parent="1" target="rfTbKDHsITXjUfhESdeL-8">
          <mxGeometry relative="1" as="geometry">
            <mxPoint x="380" y="285" as="sourcePoint" />
            <mxPoint x="580" y="445" as="targetPoint" />
            <Array as="points">
              <mxPoint x="380" y="320" />
              <mxPoint x="580" y="320" />
              <mxPoint x="580" y="545" />
            </Array>
          </mxGeometry>
        </mxCell>
        <mxCell id="rfTbKDHsITXjUfhESdeL-5" value="入口网关" style="rounded=0;whiteSpace=wrap;html=1;strokeWidth=2;gradientColor=none;fontSize=16;" parent="1" vertex="1">
          <mxGeometry x="305" y="230" width="150" height="50" as="geometry" />
        </mxCell>
        <mxCell id="U6g6P6BVi3KQueRZhiH1-14" style="edgeStyle=orthogonalEdgeStyle;rounded=0;orthogonalLoop=1;jettySize=auto;html=1;exitX=0.25;exitY=1;exitDx=0;exitDy=0;entryX=0;entryY=0.5;entryDx=0;entryDy=0;endArrow=classic;endFill=1;strokeWidth=2;" edge="1" parent="1" source="rfTbKDHsITXjUfhESdeL-7" target="rfTbKDHsITXjUfhESdeL-8">
          <mxGeometry relative="1" as="geometry" />
        </mxCell>
        <mxCell id="rfTbKDHsITXjUfhESdeL-7" value="聚合层&lt;br&gt;&lt;br&gt;&lt;br&gt;&lt;br&gt;" style="rounded=0;whiteSpace=wrap;html=1;strokeWidth=2;fillColor=#ffffff;gradientColor=none;fontSize=16;dashed=1;" parent="1" vertex="1">
          <mxGeometry x="120" y="360" width="360" height="120" as="geometry" />
        </mxCell>
        <mxCell id="U6g6P6BVi3KQueRZhiH1-2" style="edgeStyle=orthogonalEdgeStyle;rounded=0;orthogonalLoop=1;jettySize=auto;html=1;entryX=0.5;entryY=0;entryDx=0;entryDy=0;strokeWidth=2;" edge="1" parent="1" source="rfTbKDHsITXjUfhESdeL-8" target="rfTbKDHsITXjUfhESdeL-9">
          <mxGeometry relative="1" as="geometry" />
        </mxCell>
        <mxCell id="rfTbKDHsITXjUfhESdeL-8" value="原子层网关" style="rounded=0;whiteSpace=wrap;html=1;strokeWidth=2;gradientColor=none;fontSize=16;" parent="1" vertex="1">
          <mxGeometry x="305" y="520" width="150" height="50" as="geometry" />
        </mxCell>
        <mxCell id="rfTbKDHsITXjUfhESdeL-9" value="原子层&lt;br&gt;&lt;br&gt;&lt;br&gt;&lt;br&gt;" style="rounded=0;whiteSpace=wrap;html=1;strokeWidth=2;fillColor=#ffffff;gradientColor=none;fontSize=16;dashed=1;" parent="1" vertex="1">
          <mxGeometry x="120" y="610" width="520" height="130" as="geometry" />
        </mxCell>
        <mxCell id="rfTbKDHsITXjUfhESdeL-13" value="聚合应用" style="rounded=0;whiteSpace=wrap;html=1;strokeWidth=2;fillColor=#ffffff;gradientColor=none;fontSize=16;" parent="1" vertex="1">
          <mxGeometry x="160" y="420" width="120" height="40" as="geometry" />
        </mxCell>
        <mxCell id="rfTbKDHsITXjUfhESdeL-14" value="聚合应用" style="rounded=0;whiteSpace=wrap;html=1;strokeWidth=2;fillColor=#ffffff;gradientColor=none;fontSize=16;" parent="1" vertex="1">
          <mxGeometry x="320" y="420" width="120" height="40" as="geometry" />
        </mxCell>
        <mxCell id="rfTbKDHsITXjUfhESdeL-16" value="原子应用" style="rounded=0;whiteSpace=wrap;html=1;strokeWidth=2;fillColor=#ffffff;gradientColor=none;fontSize=16;" parent="1" vertex="1">
          <mxGeometry x="160" y="670" width="120" height="40" as="geometry" />
        </mxCell>
        <mxCell id="rfTbKDHsITXjUfhESdeL-17" value="原子应用" style="rounded=0;whiteSpace=wrap;html=1;strokeWidth=2;fillColor=#ffffff;gradientColor=none;fontSize=16;" parent="1" vertex="1">
          <mxGeometry x="320" y="670" width="120" height="40" as="geometry" />
        </mxCell>
        <mxCell id="rfTbKDHsITXjUfhESdeL-18" value="原子应用" style="rounded=0;whiteSpace=wrap;html=1;strokeWidth=2;fillColor=#ffffff;gradientColor=none;fontSize=16;" parent="1" vertex="1">
          <mxGeometry x="480" y="670" width="120" height="40" as="geometry" />
        </mxCell>
        <mxCell id="U6g6P6BVi3KQueRZhiH1-15" value="&lt;font style=&quot;font-size: 18px;&quot;&gt;业务中台&lt;/font&gt;" style="text;html=1;strokeColor=none;fillColor=none;align=center;verticalAlign=middle;whiteSpace=wrap;rounded=0;fontSize=18;" vertex="1" parent="1">
          <mxGeometry x="120" y="230" width="80" height="30" as="geometry" />
        </mxCell>
      </root>
    </mxGraphModel>
  </diagram>
</mxfile>
